<mxfile host="app.diagrams.net" modified="2023-07-14T04:53:29.323Z" agent="Mozilla/5.0 (Windows NT 10.0; Win64; x64) AppleWebKit/537.36 (KHTML, like Gecko) Chrome/114.0.0.0 Safari/537.36" etag="bn-Iyvr86qHoKaRXB0wk" version="21.6.2" type="github">
  <diagram name="Page-1" id="1h8ayO9g9511s92VyKUn">
    <mxGraphModel dx="1877" dy="523" grid="1" gridSize="10" guides="1" tooltips="1" connect="1" arrows="1" fold="1" page="1" pageScale="1" pageWidth="827" pageHeight="1169" math="0" shadow="0">
      <root>
        <mxCell id="0" />
        <mxCell id="1" parent="0" />
        <mxCell id="Tag_JydsyfRiH49gKMEX-1" value="&lt;b&gt;Google &lt;/b&gt;Cloud Platform" style="fillColor=#F6F6F6;strokeColor=none;shadow=0;gradientColor=none;fontSize=14;align=left;spacing=10;fontColor=#717171;9E9E9E;verticalAlign=top;spacingTop=-4;fontStyle=0;spacingLeft=40;html=1;whiteSpace=wrap;container=0;" parent="1" vertex="1">
          <mxGeometry x="20" y="120" width="820" height="460" as="geometry" />
        </mxCell>
        <mxCell id="Tag_JydsyfRiH49gKMEX-32" style="edgeStyle=orthogonalEdgeStyle;rounded=0;orthogonalLoop=1;jettySize=auto;html=1;" parent="1" source="Tag_JydsyfRiH49gKMEX-7" target="Tag_JydsyfRiH49gKMEX-3" edge="1">
          <mxGeometry relative="1" as="geometry" />
        </mxCell>
        <mxCell id="Tag_JydsyfRiH49gKMEX-7" value="" style="sketch=0;outlineConnect=0;fontColor=#232F3E;gradientColor=none;fillColor=#232F3D;strokeColor=none;dashed=0;verticalLabelPosition=bottom;verticalAlign=top;align=center;html=1;fontSize=12;fontStyle=0;aspect=fixed;pointerEvents=1;shape=mxgraph.aws4.users;" parent="1" vertex="1">
          <mxGeometry x="-90" y="281" width="78" height="78" as="geometry" />
        </mxCell>
        <mxCell id="Tag_JydsyfRiH49gKMEX-9" value="&lt;b&gt;CAM Users&lt;/b&gt;" style="text;html=1;align=center;verticalAlign=middle;resizable=0;points=[];autosize=1;strokeColor=none;fillColor=none;" parent="1" vertex="1">
          <mxGeometry x="-96" y="358" width="90" height="30" as="geometry" />
        </mxCell>
        <mxCell id="Tag_JydsyfRiH49gKMEX-2" value="" style="shape=mxgraph.gcp2.google_cloud_platform;fillColor=#F6F6F6;strokeColor=none;shadow=0;gradientColor=none;" parent="1" vertex="1">
          <mxGeometry x="40" y="130" width="23" height="20" as="geometry">
            <mxPoint x="20" y="10" as="offset" />
          </mxGeometry>
        </mxCell>
        <mxCell id="Tag_JydsyfRiH49gKMEX-16" style="edgeStyle=orthogonalEdgeStyle;rounded=0;orthogonalLoop=1;jettySize=auto;html=1;entryX=0;entryY=0.5;entryDx=0;entryDy=0;" parent="1" source="Tag_JydsyfRiH49gKMEX-3" target="Tag_JydsyfRiH49gKMEX-14" edge="1">
          <mxGeometry relative="1" as="geometry" />
        </mxCell>
        <mxCell id="Tag_JydsyfRiH49gKMEX-35" style="edgeStyle=orthogonalEdgeStyle;rounded=0;orthogonalLoop=1;jettySize=auto;html=1;entryX=0;entryY=0.5;entryDx=0;entryDy=0;" parent="1" source="Tag_JydsyfRiH49gKMEX-3" target="Tag_JydsyfRiH49gKMEX-33" edge="1">
          <mxGeometry relative="1" as="geometry" />
        </mxCell>
        <mxCell id="Tag_JydsyfRiH49gKMEX-3" value="" style="strokeColor=#dddddd;shadow=1;strokeWidth=1;rounded=1;absoluteArcSize=1;arcSize=2;" parent="1" vertex="1">
          <mxGeometry x="90" y="290" width="120" height="60" as="geometry" />
        </mxCell>
        <mxCell id="Tag_JydsyfRiH49gKMEX-4" value="UI App" style="editableCssRules=.*;html=1;fontColor=#999999;shape=image;verticalLabelPosition=middle;labelBackgroundColor=#ffffff;verticalAlign=middle;labelPosition=right;align=left;spacingLeft=20;part=1;points=[];imageAspect=0;image=data:image/svg+xml,PHN2ZyB4bWxucz0iaHR0cDovL3d3dy53My5vcmcvMjAwMC9zdmciIHhtbG5zOnY9Imh0dHBzOi8vdmVjdGEuaW8vbmFubyIgd2lkdGg9IjIwIiBoZWlnaHQ9IjE2IiB2aWV3Qm94PSIwIDAgMjAgMTYiPiYjeGE7CTxzdHlsZSB0eXBlPSJ0ZXh0L2NzcyI+JiN4YTsJLnN0MHtmaWxsOiM0Mjg1ZjQ7fSYjeGE7CS5zdDF7ZmlsbDojNjY5ZGY2O30mI3hhOwkuc3Qye2ZpbGw6I2FlY2JmYTt9JiN4YTsJLnN0M3tmaWxsOiNmZmY7fSYjeGE7CTwvc3R5bGU+JiN4YTsJPHBhdGggY2xhc3M9InN0MiIgZD0iTTAgMGgyMHY3SDB6Ii8+JiN4YTsJPHBhdGggY2xhc3M9InN0MSIgZD0iTTE4IDBoMnY3aC0yeiIvPiYjeGE7CTxwYXRoIGNsYXNzPSJzdDAiIGQ9Ik0xOCA3bDItN2gtMnoiLz4mI3hhOwk8cGF0aCBjbGFzcz0ic3QxIiBkPSJNMCAwaDJ2N0gweiIvPiYjeGE7CTxnIGNsYXNzPSJzdDMiPiYjeGE7CQk8cGF0aCBkPSJNNCAzaDZ2MUg0eiIvPiYjeGE7CQk8cmVjdCB4PSIxMyIgeT0iMiIgd2lkdGg9IjMiIGhlaWdodD0iMyIgcng9IjEuNSIvPiYjeGE7CTwvZz4mI3hhOwk8cGF0aCBjbGFzcz0ic3QyIiBkPSJNMCA5aDIwdjdIMHoiLz4mI3hhOwk8cGF0aCBjbGFzcz0ic3QxIiBkPSJNMTggOWgydjdoLTJ6Ii8+JiN4YTsJPHBhdGggY2xhc3M9InN0MCIgZD0iTTE4IDE2bDItN2gtMnoiLz4mI3hhOwk8cGF0aCBjbGFzcz0ic3QxIiBkPSJNMCA5aDJ2N0gweiIvPiYjeGE7CTxnIGNsYXNzPSJzdDMiPiYjeGE7CQk8cGF0aCBkPSJNNCAxMmg2djFINHoiLz4mI3hhOwkJPHJlY3QgeD0iMTMiIHk9IjExIiB3aWR0aD0iMyIgaGVpZ2h0PSIzIiByeD0iMS41Ii8+JiN4YTsJPC9nPiYjeGE7PC9zdmc+;" parent="Tag_JydsyfRiH49gKMEX-3" vertex="1">
          <mxGeometry width="30" height="24" relative="1" as="geometry">
            <mxPoint x="15" y="18" as="offset" />
          </mxGeometry>
        </mxCell>
        <mxCell id="Tag_JydsyfRiH49gKMEX-30" style="edgeStyle=orthogonalEdgeStyle;rounded=0;orthogonalLoop=1;jettySize=auto;html=1;entryX=0;entryY=0.5;entryDx=0;entryDy=0;" parent="1" source="Tag_JydsyfRiH49gKMEX-14" target="Tag_JydsyfRiH49gKMEX-19" edge="1">
          <mxGeometry relative="1" as="geometry" />
        </mxCell>
        <mxCell id="Tag_JydsyfRiH49gKMEX-14" value="" style="strokeColor=#dddddd;shadow=1;strokeWidth=1;rounded=1;absoluteArcSize=1;arcSize=2;" parent="1" vertex="1">
          <mxGeometry x="260" y="170" width="120" height="60" as="geometry" />
        </mxCell>
        <mxCell id="Tag_JydsyfRiH49gKMEX-15" value="research&lt;br&gt;data" style="editableCssRules=.*;html=1;fontColor=#999999;shape=image;verticalLabelPosition=middle;labelBackgroundColor=#ffffff;verticalAlign=middle;labelPosition=right;align=left;spacingLeft=20;part=1;points=[];imageAspect=0;image=data:image/svg+xml,PHN2ZyB4bWxucz0iaHR0cDovL3d3dy53My5vcmcvMjAwMC9zdmciIHhtbG5zOnY9Imh0dHBzOi8vdmVjdGEuaW8vbmFubyIgd2lkdGg9IjIwIiBoZWlnaHQ9IjE2IiB2aWV3Qm94PSIwIDAgMjAgMTYiPiYjeGE7CTxzdHlsZSB0eXBlPSJ0ZXh0L2NzcyI+JiN4YTsJLnN0MHtmaWxsOiM0Mjg1ZjQ7fSYjeGE7CS5zdDF7ZmlsbDojNjY5ZGY2O30mI3hhOwkuc3Qye2ZpbGw6I2FlY2JmYTt9JiN4YTsJLnN0M3tmaWxsOiNmZmY7fSYjeGE7CTwvc3R5bGU+JiN4YTsJPHBhdGggY2xhc3M9InN0MiIgZD0iTTAgMGgyMHY3SDB6Ii8+JiN4YTsJPHBhdGggY2xhc3M9InN0MSIgZD0iTTE4IDBoMnY3aC0yeiIvPiYjeGE7CTxwYXRoIGNsYXNzPSJzdDAiIGQ9Ik0xOCA3bDItN2gtMnoiLz4mI3hhOwk8cGF0aCBjbGFzcz0ic3QxIiBkPSJNMCAwaDJ2N0gweiIvPiYjeGE7CTxnIGNsYXNzPSJzdDMiPiYjeGE7CQk8cGF0aCBkPSJNNCAzaDZ2MUg0eiIvPiYjeGE7CQk8cmVjdCB4PSIxMyIgeT0iMiIgd2lkdGg9IjMiIGhlaWdodD0iMyIgcng9IjEuNSIvPiYjeGE7CTwvZz4mI3hhOwk8cGF0aCBjbGFzcz0ic3QyIiBkPSJNMCA5aDIwdjdIMHoiLz4mI3hhOwk8cGF0aCBjbGFzcz0ic3QxIiBkPSJNMTggOWgydjdoLTJ6Ii8+JiN4YTsJPHBhdGggY2xhc3M9InN0MCIgZD0iTTE4IDE2bDItN2gtMnoiLz4mI3hhOwk8cGF0aCBjbGFzcz0ic3QxIiBkPSJNMCA5aDJ2N0gweiIvPiYjeGE7CTxnIGNsYXNzPSJzdDMiPiYjeGE7CQk8cGF0aCBkPSJNNCAxMmg2djFINHoiLz4mI3hhOwkJPHJlY3QgeD0iMTMiIHk9IjExIiB3aWR0aD0iMyIgaGVpZ2h0PSIzIiByeD0iMS41Ii8+JiN4YTsJPC9nPiYjeGE7PC9zdmc+;" parent="Tag_JydsyfRiH49gKMEX-14" vertex="1">
          <mxGeometry width="30" height="24" relative="1" as="geometry">
            <mxPoint x="15" y="18" as="offset" />
          </mxGeometry>
        </mxCell>
        <mxCell id="Tag_JydsyfRiH49gKMEX-19" value="" style="shape=mxgraph.gcp2.doubleRect;strokeColor=#dddddd;shadow=1;strokeWidth=1;rounded=1;absoluteArcSize=1;arcSize=2;" parent="1" vertex="1">
          <mxGeometry x="490" y="166" width="128" height="68" as="geometry" />
        </mxCell>
        <mxCell id="Tag_JydsyfRiH49gKMEX-20" value="&lt;font color=&quot;#000000&quot;&gt;External&lt;br&gt;dataset&lt;/font&gt;&lt;br&gt;BigQuery" style="editableCssRules=.*;html=1;fontColor=#999999;shape=image;verticalLabelPosition=middle;labelBackgroundColor=#ffffff;verticalAlign=middle;labelPosition=right;align=left;spacingLeft=20;part=1;points=[];imageAspect=0;image=data:image/svg+xml,PHN2ZyB4bWxucz0iaHR0cDovL3d3dy53My5vcmcvMjAwMC9zdmciIHhtbG5zOnY9Imh0dHBzOi8vdmVjdGEuaW8vbmFubyIgd2lkdGg9IjIwLjAwMTA0NTIyNzA1MDc4IiBoZWlnaHQ9IjIwLjAwMTA0NTIyNzA1MDc4IiBmaWxsLXJ1bGU9ImV2ZW5vZGQiIHZpZXdCb3g9IjAgMCAyMC4wMDEwNDUyMjcwNTA3OCAyMC4wMDEwNDUyMjcwNTA3OCI+JiN4YTsJPHN0eWxlIHR5cGU9InRleHQvY3NzIj4mI3hhOwkuc3Qwe2ZpbGw6I2FlY2JmYTt9JiN4YTsJLnN0MXtmaWxsOiM2NjlkZjY7fSYjeGE7CS5zdDJ7ZmlsbDojNDI4NWY0O30mI3hhOwk8L3N0eWxlPiYjeGE7CTxwYXRoIGNsYXNzPSJzdDAiIGQ9Ik00LjczIDguODN2Mi42M2E0LjkxIDQuOTEgMCAwIDAgMS43MSAxLjc0VjguODN6Ii8+JiN4YTsJPHBhdGggY2xhc3M9InN0MSIgZD0iTTcuODkgNi40MXY3LjUzQTcuNjIgNy42MiAwIDAgMCA5IDE0YTggOCAwIDAgMCAxIDBWNi40MXoiLz4mI3hhOwk8cGF0aCBjbGFzcz0ic3QwIiBkPSJNMTEuNjQgOS44NnYzLjI5YTUgNSAwIDAgMCAxLjctMS44MlY5Ljg2eiIvPiYjeGE7CTxwYXRoIGNsYXNzPSJzdDIiIGQ9Ik0xNS43NCAxNC4zMmwtMS40MiAxLjQyYS40Mi40MiAwIDAgMCAwIC42bDMuNTQgMy41NGEuNDIuNDIgMCAwIDAgLjU5IDBsMS40My0xLjQzYS40Mi40MiAwIDAgMCAwLS41OWwtMy41NC0zLjU0YS40Mi40MiAwIDAgMC0uNiAwIi8+JiN4YTsJPHBhdGggY2xhc3M9InN0MSIgZD0iTTkgMGE5IDkgMCAxIDAgMCAxOEE5IDkgMCAxIDAgOSAwbTAgMTUuNjlhNi42OCA2LjY4IDAgMCAxIC4wMDctMTMuMzYgNi42OCA2LjY4IDAgMCAxIDQuNzI3IDExLjQwM0E2LjY4IDYuNjggMCAwIDEgOSAxNS42OSIvPiYjeGE7PC9zdmc+;" parent="Tag_JydsyfRiH49gKMEX-19" vertex="1">
          <mxGeometry width="30" height="30" relative="1" as="geometry">
            <mxPoint x="15" y="15" as="offset" />
          </mxGeometry>
        </mxCell>
        <mxCell id="Tag_JydsyfRiH49gKMEX-33" value="" style="strokeColor=#dddddd;shadow=1;strokeWidth=1;rounded=1;absoluteArcSize=1;arcSize=2;" parent="1" vertex="1">
          <mxGeometry x="330" y="290" width="180" height="60" as="geometry" />
        </mxCell>
        <mxCell id="Tag_JydsyfRiH49gKMEX-34" value="&lt;font color=&quot;#000000&quot;&gt;recommandation-ai&lt;/font&gt;&lt;br&gt;Cloud Run" style="editableCssRules=.*;html=1;fontColor=#999999;shape=image;verticalLabelPosition=middle;labelBackgroundColor=#ffffff;verticalAlign=middle;labelPosition=right;align=left;spacingLeft=20;part=1;points=[];imageAspect=0;image=data:image/svg+xml,PHN2ZyB4bWxucz0iaHR0cDovL3d3dy53My5vcmcvMjAwMC9zdmciIHhtbG5zOnY9Imh0dHBzOi8vdmVjdGEuaW8vbmFubyIgd2lkdGg9IjM2NS40NjQ5OTY3NzA0MjQ5MyIgaGVpZ2h0PSIzNzkuMjIyOTk0NDYzNTc3OTUiIHZpZXdCb3g9IjAgMCA5Ni42OTU5OTkxNDU1MDc4MSAxMDAuMzM1OTk4NTM1MTU2MjUiPiYjeGE7PHN0eWxlIHR5cGU9InRleHQvY3NzIj4mI3hhOwkuc3Qwe2ZpbGw6IzQyODVmNDt9JiN4YTsJLnN0MXtmaWxsOiNhZWNiZmE7fSYjeGE7PC9zdHlsZT4mI3hhOwk8cGF0aCBjbGFzcz0ic3QwIiBkPSJNMjkuNzk0IDEwMC4zMzZMNDYuOTIgNTAuMTY4aDQ5Ljc3NnpNMCA5OS42NzFsMTIuOTc2LTQ5LjUwMkgyOS4yMkwxNi44OTcgOTIuMDU0eiIvPiYjeGE7CTxwYXRoIGNsYXNzPSJzdDEiIGQ9Ik0yOS43OTQgMEw0Ni45MiA1MC4xNjhoNDkuNzc2ek0wIC42NjZsMTIuOTc2IDQ5LjUwMkgyOS4yMkwxNi44OTcgOC4yODN6Ii8+JiN4YTs8L3N2Zz4=;" parent="Tag_JydsyfRiH49gKMEX-33" vertex="1">
          <mxGeometry width="30" height="30" relative="1" as="geometry">
            <mxPoint x="15" y="15" as="offset" />
          </mxGeometry>
        </mxCell>
      </root>
    </mxGraphModel>
  </diagram>
</mxfile>
